<svg xmlns="http://www.w3.org/2000/svg" width="390" height="844" viewBox="0 0 390 844">
<rect width="390" height="844" fill="#fff"/>
<g fill="none" stroke="#222" stroke-width="2">
<rect x="18" y="18" width="354" height="52" rx="12"/><rect x="18" y="88" width="354" height="46" rx="10"/>
<rect x="18" y="166" width="108" height="34" rx="17"/><rect x="136" y="166" width="108" height="34" rx="17"/><rect x="254" y="166" width="118" height="34" rx="17"/>
<rect x="18" y="224" width="168" height="250" rx="12"/><rect x="204" y="224" width="168" height="250" rx="12"/>
<rect x="18" y="494" width="168" height="250" rx="12"/><rect x="204" y="494" width="168" height="250" rx="12"/>
<path d="M0 790h390"/>
</g>
<g font-family="Arial,sans-serif" fill="#222"><text x="30" y="51" font-size="22">Shop</text><text x="34" y="117" font-size="15">Search products</text><text x="30" y="156" font-size="18">Categories</text><text x="30" y="188" font-size="13">Electronics</text><text x="148" y="188" font-size="13">Fashion</text><text x="266" y="188" font-size="13">Home</text>
<text x="30" y="265" font-size="14">IMAGE</text><text x="30" y="432" font-size="14">Product name</text><text x="30" y="454" font-size="13">₹ Price  ★ Rating</text><text x="216" y="265" font-size="14">IMAGE</text><text x="216" y="432" font-size="14">Product name</text><text x="216" y="454" font-size="13">₹ Price  ★ Rating</text>
<text x="30" y="535" font-size="14">IMAGE</text><text x="30" y="702" font-size="14">Product name</text><text x="30" y="724" font-size="13">₹ Price  ★ Rating</text><text x="216" y="535" font-size="14">IMAGE</text><text x="216" y="702" font-size="14">Product name</text><text x="216" y="724" font-size="13">₹ Price  ★ Rating</text>
<text x="34" y="818" font-size="13">Home</text><text x="128" y="818" font-size="13">Search</text><text x="224" y="818" font-size="13">Cart</text><text x="308" y="818" font-size="13">Account</text></g></svg>